# xmcd
#
# Track frame offsets: 
#        150
#        14805
#        30622
#        44997
#        58875
#        73967
#        88307
#        105247
#        120812
#        134740
#        150035
#        164430
#        177482
#        191847
#        207770
#        223040
#        237665
#        253162
#
# Disc length: 3550 seconds
#
# Revision: 6
# Processed by: cddbd v1.5.2PL0 Copyright (c) Steve Scherf et al.
# Submitted via: ExactAudioCopyFreeDBPlugin 1.0
#
DISCID=160ddc12
DTITLE=Bessie Smith - Empress of the Blues:  The Complete Recordings [
DTITLE=Columbia-Legacy Roots n' Blues box set]
DYEAR=1991
DGENRE=Blues
TTITLE0=Cold in Hand Blues
TTITLE1=You've Been a Good Ole Wagon
TTITLE2=Cake Walkin' Babies (From Home)
TTITLE3=The Yellow Dog Blues
TTITLE4=Soft Pedal Blues
TTITLE5=Dixie Flyer Blues
TTITLE6=Nashville Woman's Blues
TTITLE7=Careless Love Blues
TTITLE8=J.C. Holmes Blues
TTITLE9=I Ain't Goin' to Play Second Fiddle
TTITLE10=He's Gone Blues
TTITLE11=Nobody's Blues But Mine
TTITLE12=I Ain't Got Nobody
TTITLE13=My Man Blues
TTITLE14=New Gulf Coast Blues
TTITLE15=Florida Bound Blues
TTITLE16=At the Christmas Ball
TTITLE17=I've Been Mistreated and I Don't Like It
EXTD=
EXTT0=
EXTT1=
EXTT2=
EXTT3=
EXTT4=
EXTT5=
EXTT6=
EXTT7=
EXTT8=
EXTT9=
EXTT10=
EXTT11=
EXTT12=
EXTT13=
EXTT14=
EXTT15=
EXTT16=
EXTT17=
PLAYORDER=
